<svg width="12" height="19" viewBox="0 0 12 19" fill="none" xmlns="http://www.w3.org/2000/svg">
  <path d="M1.66667 18.3333C1.20833 18.3333 0.815972 18.1701 0.489583 17.8438C0.163194 17.5174 0 17.125 0 16.6667V1.66667C0 1.20833 0.163194 0.815972 0.489583 0.489583C0.815972 0.163194 1.20833 0 1.66667 0H10C10.4583 0 10.8507 0.163194 11.1771 0.489583C11.5035 0.815972 11.6667 1.20833 11.6667 1.66667V16.6667C11.6667 17.125 11.5035 17.5174 11.1771 17.8438C10.8507 18.1701 10.4583 18.3333 10 18.3333H1.66667ZM5.83333 16.25C6.06944 16.25 6.26736 16.1701 6.42708 16.0104C6.58681 15.8507 6.66667 15.6528 6.66667 15.4167C6.66667 15.1806 6.58681 14.9826 6.42708 14.8229C6.26736 14.6632 6.06944 14.5833 5.83333 14.5833C5.59722 14.5833 5.39931 14.6632 5.23958 14.8229C5.07986 14.9826 5 15.1806 5 15.4167C5 15.6528 5.07986 15.8507 5.23958 16.0104C5.39931 16.1701 5.59722 16.25 5.83333 16.25ZM1.66667 12.5H10V4.16667H1.66667V12.5Z" fill="#644F43" />
</svg>