<svg width="48" height="48" viewBox="0 0 48 48" fill="none" xmlns="http://www.w3.org/2000/svg">
  <rect width="48" height="48" rx="24" fill="white" fill-opacity="0.4" />
  <path d="M16.9393 28.9393C16.3536 29.5251 16.3536 30.4749 16.9393 31.0607C17.5251 31.6464 18.4749 31.6464 19.0607 31.0607L16.9393 28.9393ZM31.5 18C31.5 17.1716 30.8284 16.5 30 16.5L16.5 16.5C15.6716 16.5 15 17.1716 15 18C15 18.8284 15.6716 19.5 16.5 19.5H28.5V31.5C28.5 32.3284 29.1716 33 30 33C30.8284 33 31.5 32.3284 31.5 31.5L31.5 18ZM19.0607 31.0607L31.0607 19.0607L28.9393 16.9393L16.9393 28.9393L19.0607 31.0607Z" fill="white" />
</svg>